<?xml version="1.0" encoding="UTF-8"?> <svg xmlns="http://www.w3.org/2000/svg" id="livetype" viewBox="0 0 584.68816 195.44318"><defs><style> .cls-1 { fill: #a6a6a6; } .cls-2 { fill: #fff; } .cls-3 { fill: #f25022; } .cls-4 { fill: #7fba00; } .cls-5 { fill: #00a4ef; } .cls-6 { fill: #ffb900; } </style></defs><title>WINDOWS</title><g><g><path class="cls-1" d="M535.17174,1.1754H49.54237c-1.77018,0-3.51912,0-5.28462.00965-1.47789.00966-2.944.0377-4.43607.06131a63.79133,63.79133,0,0,0-9.67348.853A32.17444,32.17444,0,0,0,20.972,5.12613a31.07766,31.07766,0,0,0-7.81375,5.68977,30.21186,30.21186,0,0,0-5.68765,7.82553,31.86634,31.86634,0,0,0-3.01708,9.188,62.72149,62.72149,0,0,0-.86505,9.66431c-.0448,1.48-.04953,2.965-.07314,4.44528V153.519c.02361,1.49888.02834,2.95095.07314,4.45031a62.719,62.719,0,0,0,.86505,9.66383,31.80055,31.80055,0,0,0,3.01708,9.19267,29.96674,29.96674,0,0,0,5.68765,7.79275,30.289,30.289,0,0,0,7.81375,5.69,32.34757,32.34757,0,0,0,9.17617,3.04507,64.95107,64.95107,0,0,0,9.67348.85347c1.49207.03283,2.95818.05165,4.43607.05165,1.76545.00967,3.51453.00967,5.28462.00967H535.17174c1.73493,0,3.49789,0,5.23282-.00965,1.4709,0,2.97944-.01882,4.4503-.05165a64.10245,64.10245,0,0,0,9.65465-.85347,32.8467,32.8467,0,0,0,9.21152-3.04507,30.30364,30.30364,0,0,0,7.80677-5.69,30.86989,30.86989,0,0,0,5.704-7.79275,31.88036,31.88036,0,0,0,2.98861-9.19268,65.20338,65.20338,0,0,0,.896-9.66382c.01882-1.49937.01882-2.95143.01882-4.45031.03764-1.75377.03764-3.49788.03764-5.28012V47.2094c0-1.76782,0-3.52149-.03764-5.27043,0-1.48025,0-2.96523-.01882-4.44548a65.20456,65.20456,0,0,0-.896-9.66431,31.94616,31.94616,0,0,0-2.98861-9.18794,31.21427,31.21427,0,0,0-13.5107-13.51555A32.66956,32.66956,0,0,0,554.50955,2.099a62.96852,62.96852,0,0,0-9.65465-.85328c-1.4709-.02355-2.97944-.05184-4.4503-.06126-1.73493-.00965-3.49789-.00965-5.23282-.00965Z"></path><path d="M44.2813,190.0445c-1.47078,0-2.90605-.01882-4.3653-.05165a61.24465,61.24465,0,0,1-9.02295-.78735,28.403,28.403,0,0,1-7.99762-2.64489,26.09528,26.09528,0,0,1-6.74377-4.90747,25.68507,25.68507,0,0,1-4.92633-6.74136,27.6208,27.6208,0,0,1-2.62124-7.99984,59.9235,59.9235,0,0,1-.80375-9.05123c-.03061-1.01808-.07067-4.40783-.07067-4.40783V41.939s.04267-3.33766.07091-4.31823a59.71532,59.71532,0,0,1,.79907-9.03709,27.7839,27.7839,0,0,1,2.62345-8.0235,25.93971,25.93971,0,0,1,4.90042-6.74836A26.8662,26.8662,0,0,1,22.89307,8.876a28.11006,28.11006,0,0,1,7.98111-2.62577,60.75593,60.75593,0,0,1,9.0537-.792l4.35579-.05894H540.38088l4.40784.0613a59.78564,59.78564,0,0,1,8.97109.78488,28.666,28.666,0,0,1,8.066,2.64465,27.00288,27.00288,0,0,1,11.658,11.68179,27.81809,27.81809,0,0,1,2.58359,7.95987,62.73219,62.73219,0,0,1,.839,9.11018c.014,1.3671.014,2.83557.014,4.297.03812,1.81025.03812,3.53327.03812,5.27043V148.2389c0,1.75377,0,3.465-.03812,5.19033,0,1.56985,0,3.0079-.01882,4.488a61.46007,61.46007,0,0,1-.825,8.94745,27.70381,27.70381,0,0,1-2.60676,8.06163,26.45563,26.45563,0,0,1-4.90264,6.68922,26.13,26.13,0,0,1-6.75535,4.93594,28.29631,28.29631,0,0,1-8.052,2.65406,60.54748,60.54748,0,0,1-9.02324.78735c-1.41393.03283-2.89448.05165-4.332.05165l-5.23282.00965Z"></path></g><g><path class="cls-2" d="M173.35449,41.67518a59.85157,59.85157,0,0,1,8.88086-.67188c6,0,10.27246,1.39258,13.10449,4.03223,2.88086,2.64062,4.56055,6.38477,4.56055,11.61719,0,5.28027-1.63184,9.60058-4.65625,12.57715-3.02441,3.02442-8.0166,4.65625-14.30469,4.65625a67.36952,67.36952,0,0,1-7.585-.38379Zm4.17578,28.61035a26.33667,26.33667,0,0,0,4.22461.24023c8.92871,0,13.77735-4.99218,13.77735-13.72851.04785-7.63281-4.27246-12.48145-13.10547-12.48145a23.794,23.794,0,0,0-4.89649.43164Z"></path><path class="cls-2" d="M226.39551,61.78944c0,8.59277-5.95313,12.33691-11.56934,12.33691-6.28808,0-11.13672-4.6084-11.13672-11.95313,0-7.77636,5.08887-12.33691,11.52051-12.33691C221.88281,49.83631,226.39551,54.68494,226.39551,61.78944Zm-18.4336.24023c0,5.08789,2.92774,8.92871,7.05664,8.92871,4.03223,0,7.05665-3.793,7.05665-9.02539,0-3.93652-1.96875-8.9287-6.96094-8.9287S207.96191,57.61268,207.96191,62.02967Z"></path><path class="cls-2" d="M233.06641,50.36463l3.07226,11.80859c.67188,2.5918,1.2959,4.99219,1.72754,7.39258h.14453c.52832-2.35254,1.2959-4.84863,2.06446-7.34472l3.792-11.85645h3.55273l3.59961,11.61621c.86426,2.78418,1.53613,5.23242,2.06445,7.585h.14356a70.08321,70.08321,0,0,1,1.77637-7.53613l3.3125-11.665h4.17675L255.00391,73.598h-3.83985l-3.55273-11.08887a77.33583,77.33583,0,0,1-2.06348-7.63281h-.09668a68.6983,68.6983,0,0,1-2.1123,7.68066l-3.74414,11.041h-3.83985l-7.00879-23.2334Z"></path><path class="cls-2" d="M266.71289,56.65272c0-2.40039-.04785-4.36817-.19141-6.28809h3.74414l.24024,3.83984h.0957a8.545,8.545,0,0,1,7.68067-4.36816c3.21679,0,8.209,1.91992,8.209,9.88867V73.598H282.2666V60.20545c0-3.74512-1.39258-6.86523-5.376-6.86523a6.00193,6.00193,0,0,0-5.665,4.32031,6.066,6.066,0,0,0-.28809,1.96876V73.598h-4.22461Z"></path><path class="cls-2" d="M293.35254,39.515h4.22461V73.598h-4.22461Z"></path><path class="cls-2" d="M325.707,61.78944c0,8.59277-5.95312,12.33691-11.56933,12.33691-6.28809,0-11.13672-4.6084-11.13672-11.95313,0-7.77636,5.08789-12.33691,11.5205-12.33691C321.19434,49.83631,325.707,54.68494,325.707,61.78944Zm-18.43359.24023c0,5.08789,2.92773,8.92871,7.05664,8.92871,4.03222,0,7.05664-3.793,7.05664-9.02539,0-3.93652-1.96875-8.9287-6.96094-8.9287S307.27344,57.61268,307.27344,62.02967Z"></path><path class="cls-2" d="M343.89746,73.598l-.33594-2.92773H343.418a8.65411,8.65411,0,0,1-7.10449,3.45605c-4.70508,0-7.10547-3.3125-7.10547-6.67285,0-5.61621,4.99316-8.68848,13.96972-8.64063v-.47949c0-1.9209-.52832-5.377-5.28027-5.377a11.57168,11.57168,0,0,0-6.04883,1.72851l-.96-2.78418a14.419,14.419,0,0,1,7.63281-2.06445c7.1045,0,8.833,4.84863,8.833,9.50488v8.68848a32.7037,32.7037,0,0,0,.38379,5.56836Zm-.624-11.85645c-4.6084-.09668-9.84082.71973-9.84082,5.23243a3.73815,3.73815,0,0,0,3.98437,4.03222,5.77946,5.77946,0,0,0,5.61621-3.88867,4.39154,4.39154,0,0,0,.24024-1.34375Z"></path><path class="cls-2" d="M374.23438,39.515V67.598c0,2.06348.04785,4.416.1914,6h-3.792l-.19238-4.03223h-.09571a8.59273,8.59273,0,0,1-7.9209,4.56055c-5.61621,0-9.93652-4.75293-9.93652-11.80859-.04785-7.7295,4.752-12.48145,10.417-12.48145,3.55176,0,5.95215,1.67969,7.00879,3.55176h.09571V39.515Zm-4.22461,20.30567a7.42456,7.42456,0,0,0-.19239-1.77539,6.21186,6.21186,0,0,0-6.0957-4.89649c-4.36914,0-6.96094,3.83984-6.96094,8.97656,0,4.7041,2.30371,8.59278,6.86426,8.59278a6.34986,6.34986,0,0,0,6.19238-5.041,7.30208,7.30208,0,0,0,.19239-1.82324Z"></path></g><g><path class="cls-2" d="M173.9248,149.38905V116.33436h-5.39062v-5.31153h5.39062v-1.82324c0-5.39062,1.18946-10.30469,4.43946-13.39648a13.34882,13.34882,0,0,1,9.35351-3.56739,16.18086,16.18086,0,0,1,5.94532,1.11036l-.95118,5.38964a10.41776,10.41776,0,0,0-4.43945-.87109c-5.94531,0-7.45117,5.23145-7.45117,11.09766v2.06054h9.27441v5.31153h-9.27441v33.05469Z"></path><path class="cls-2" d="M226.87891,129.88905c0,14.18945-9.82911,20.37207-19.1045,20.37207-10.38379,0-18.38964-7.60938-18.38964-19.73829,0-12.84179,8.40234-20.37207,19.02441-20.37207C219.42773,110.15076,226.87891,118.1576,226.87891,129.88905Zm-30.43946.39648c0,8.40234,4.835,14.74414,11.65235,14.74414,6.65918,0,11.65234-6.2627,11.65234-14.90332,0-6.5-3.25-14.74316-11.49414-14.74316C200.00684,115.38319,196.43945,122.99256,196.43945,130.28553Z"></path><path class="cls-2" d="M232.51074,122.99256c0-4.51855-.08008-8.40234-.31738-11.96973h6.10352l.23828,7.53028h.3164c1.74414-5.15235,5.94532-8.40235,10.62207-8.40235a7.52443,7.52443,0,0,1,1.98242.23829v6.5791a10.50023,10.50023,0,0,0-2.3789-.23828c-4.91406,0-8.40235,3.72656-9.35352,8.958a19.66912,19.66912,0,0,0-.3164,3.25v20.45118h-6.89649Z"></path><path class="cls-2" d="M275.001,149.38905,261.44629,95.96131h7.292l6.3418,27.03125c1.58594,6.6582,3.01269,13.31738,3.96387,18.46973h.1582c.87207-5.31055,2.53711-11.65235,4.36035-18.54883l7.13379-26.95215h7.21387l6.5,27.11035c1.50586,6.3418,2.93261,12.6836,3.72558,18.31153h.15821c1.11035-5.86622,2.61621-11.81153,4.28027-18.46973l7.05566-26.95215h7.05469L311.544,149.38905h-7.2129l-6.73828-27.82325a160.89872,160.89872,0,0,1-3.48828-17.43945h-.1582a166.95207,166.95207,0,0,1-4.12207,17.43945l-7.60938,27.82325Z"></path><path class="cls-2" d="M336.43945,100.24256a4.32,4.32,0,0,1-8.63965,0,4.25049,4.25049,0,0,1,4.35938-4.36035A4.14019,4.14019,0,0,1,336.43945,100.24256Zm-7.76757,49.14649V111.02283h6.97558v38.36622Z"></path><path class="cls-2" d="M344.05078,121.4076c0-3.96387-.08008-7.21387-.31738-10.38477H349.916l.39648,6.3418h.1582a14.11018,14.11018,0,0,1,12.6836-7.21387c5.31054,0,13.55468,3.1709,13.55468,16.33008v22.90821H369.7334V127.27283c0-6.18261-2.29883-11.335-8.87793-11.335a9.90987,9.90987,0,0,0-9.35352,7.13379,10.02455,10.02455,0,0,0-.47558,3.25v23.06739h-6.97559Z"></path><path class="cls-2" d="M418.01074,93.1078v46.373c0,3.40821.08008,7.293.31739,9.90821h-6.2627l-.31641-6.65821h-.15918c-2.13964,4.28028-6.8164,7.53028-13.0791,7.53028-9.27441,0-16.4082-7.84766-16.4082-19.5-.08008-12.7627,7.84766-20.61036,17.20117-20.61036,5.86621,0,9.8291,2.77442,11.57324,5.86621h.15821V93.1078Zm-6.97558,33.53125a12.33053,12.33053,0,0,0-.31641-2.93262,10.26027,10.26027,0,0,0-10.06738-8.08594c-7.21387,0-11.49414,6.3418-11.49414,14.82324,0,7.76856,3.80468,14.18946,11.335,14.18946a10.48712,10.48712,0,0,0,10.22656-8.32325,12.14216,12.14216,0,0,0,.31641-3.01269Z"></path><path class="cls-2" d="M461.13672,129.88905c0,14.18945-9.8291,20.37207-19.10449,20.37207-10.38379,0-18.38965-7.60938-18.38965-19.73829,0-12.84179,8.40234-20.37207,19.02441-20.37207C453.68555,110.15076,461.13672,118.1576,461.13672,129.88905Zm-30.43945.39648c0,8.40234,4.835,14.74414,11.65234,14.74414,6.65918,0,11.65234-6.2627,11.65234-14.90332,0-6.5-3.25-14.74316-11.49414-14.74316C434.26465,115.38319,430.69727,122.99256,430.69727,130.28553Z"></path><path class="cls-2" d="M468.98926,111.02283l5.07323,19.5c1.10939,4.28125,2.13966,8.24414,2.85353,12.208h.2373c.87207-3.88476,2.14063-8.00683,3.40917-12.12793l6.26173-19.58008h5.86621l5.94531,19.1836c1.42675,4.59765,2.53614,8.63965,3.40821,12.52441h.23828a115.19863,115.19863,0,0,1,2.93261-12.44531l5.46973-19.2627h6.89648l-12.36621,38.36622h-6.34179l-5.86524-18.31055a127.87939,127.87939,0,0,1-3.40918-12.60449h-.1582a113.50458,113.50458,0,0,1-3.48828,12.68359l-6.18262,18.23145h-6.3418l-11.57324-38.36622Z"></path><path class="cls-2" d="M519.96289,142.25526a18.28457,18.28457,0,0,0,9.19531,2.77441c5.07325,0,7.45215-2.53711,7.45215-5.708,0-3.3291-1.98242-5.15234-7.13476-7.05469-6.89649-2.457-10.14649-6.26171-10.14649-10.85937,0-6.18359,4.99414-11.25684,13.23828-11.25684A19.15509,19.15509,0,0,1,542,112.52869l-1.74414,5.07325a14.93116,14.93116,0,0,0-7.84766-2.21875c-4.12109,0-6.41992,2.37793-6.41992,5.23144,0,3.1709,2.29883,4.59766,7.292,6.5,6.65918,2.53613,10.06739,5.86621,10.06739,11.57324,0,6.73828-5.23145,11.49414-14.34766,11.49414a21.87292,21.87292,0,0,1-10.78027-2.61621Z"></path></g></g><g><rect class="cls-3" x="54.16064" y="57.81719" width="37.91407" height="37.91406"></rect><rect class="cls-4" x="96.06566" y="57.81719" width="37.98532" height="37.91406"></rect><rect class="cls-5" x="54.16064" y="99.65094" width="37.91407" height="37.98534"></rect><rect class="cls-6" x="96.06566" y="99.65094" width="37.98532" height="37.98534"></rect></g></svg> 